<svg width="34" height="24" viewBox="0 0 34 24" fill="none" xmlns="http://www.w3.org/2000/svg">
<path d="M32.9889 4.00518C32.799 3.30084 32.4281 2.65852 31.9128 2.14212C31.3976 1.62573 30.7561 1.25328 30.0522 1.06184C27.4422 0.345175 17.0005 0.333509 17.0005 0.333509C17.0005 0.333509 6.56055 0.321842 3.94888 1.00684C3.24542 1.20709 2.60525 1.5848 2.08983 2.10373C1.5744 2.62266 1.20103 3.26538 1.00555 3.97018C0.317216 6.58017 0.310549 11.9935 0.310549 11.9935C0.310549 11.9935 0.303883 17.4335 0.987216 20.0168C1.37055 21.4452 2.49555 22.5735 3.92555 22.9585C6.56222 23.6752 16.9755 23.6868 16.9755 23.6868C16.9755 23.6868 27.4172 23.6985 30.0272 23.0152C30.7314 22.8241 31.3735 22.4525 31.89 21.9371C32.4065 21.4218 32.7795 20.7806 32.9722 20.0768C33.6622 17.4685 33.6672 12.0568 33.6672 12.0568C33.6672 12.0568 33.7006 6.61517 32.9889 4.00518ZM13.6606 17.0085L13.6689 7.00851L22.3472 12.0168L13.6606 17.0085Z" fill="#661725"/>
</svg>
