<svg width="34" height="28" viewBox="0 0 34 28" fill="none" xmlns="http://www.w3.org/2000/svg">
<path d="M29.7223 7.32824C29.744 7.61991 29.744 7.90991 29.744 8.19991C29.744 17.0749 22.989 27.3016 10.644 27.3016C6.84065 27.3016 3.30732 26.1999 0.333984 24.2866C0.873984 24.3482 1.39398 24.3699 1.95565 24.3699C4.9773 24.3772 7.91339 23.3668 10.2907 21.5016C8.88969 21.4762 7.53161 21.014 6.40605 20.1795C5.28048 19.3449 4.44362 18.1797 4.01232 16.8466C4.42732 16.9082 4.84398 16.9499 5.28065 16.9499C5.88232 16.9499 6.48732 16.8666 7.04898 16.7216C5.52858 16.4146 4.16144 15.5905 3.18002 14.3894C2.19859 13.1883 1.66347 11.6843 1.66565 10.1332V10.0499C2.56065 10.5482 3.59898 10.8599 4.69898 10.9016C3.77747 10.2892 3.02185 9.45828 2.49955 8.48289C1.97725 7.50751 1.70451 6.418 1.70565 5.31158C1.70565 4.06491 2.03732 2.92158 2.61898 1.92491C4.30588 3.99994 6.40982 5.69751 8.79454 6.90767C11.1793 8.11783 13.7916 8.8136 16.4623 8.94991C16.359 8.44991 16.2956 7.93157 16.2956 7.41157C16.2952 6.52984 16.4686 5.65667 16.8058 4.84198C17.143 4.02728 17.6375 3.28703 18.261 2.66356C18.8844 2.04008 19.6247 1.54559 20.4394 1.20837C21.2541 0.871152 22.1273 0.697805 23.009 0.698243C24.9423 0.698243 26.6873 1.50824 27.914 2.81824C29.4169 2.5276 30.8582 1.97895 32.174 1.19658C31.673 2.74794 30.6236 4.06342 29.2223 4.89658C30.5553 4.74454 31.858 4.394 33.0873 3.85658C32.1692 5.19507 31.0315 6.36882 29.7223 7.32824Z" fill="#661725"/>
</svg>
