<svg width="32" height="32" viewBox="0 0 32 32" fill="none" xmlns="http://www.w3.org/2000/svg">
<path d="M30.9108 9.8416C30.894 8.5793 30.6577 7.32956 30.2125 6.14826C29.8264 5.15185 29.2367 4.24693 28.4811 3.49131C27.7255 2.7357 26.8206 2.14601 25.8241 1.75993C24.658 1.32219 23.4261 1.0855 22.1808 1.05993C20.5775 0.988262 20.0691 0.968262 15.9991 0.968262C11.9291 0.968262 11.4075 0.968262 9.81581 1.05993C8.57107 1.08569 7.33972 1.32238 6.17414 1.75993C5.17757 2.14574 4.27251 2.73534 3.51686 3.49098C2.76122 4.24663 2.17162 5.15169 1.78581 6.14826C1.34719 7.31348 1.11101 8.54511 1.08747 9.78993C1.01581 11.3949 0.994141 11.9033 0.994141 15.9733C0.994141 20.0433 0.994141 20.5633 1.08747 22.1566C1.11247 23.4033 1.34747 24.6333 1.78581 25.8016C2.17227 26.7979 2.7623 27.7026 3.5182 28.4579C4.2741 29.2132 5.17925 29.8026 6.17581 30.1883C7.3382 30.6436 8.56976 30.8972 9.81747 30.9383C11.4225 31.0099 11.9308 31.0316 16.0008 31.0316C20.0708 31.0316 20.5925 31.0316 22.1841 30.9383C23.4294 30.9137 24.6614 30.6776 25.8275 30.2399C26.8236 29.8534 27.7283 29.2636 28.4839 28.508C29.2394 27.7524 29.8293 26.8477 30.2158 25.8516C30.6541 24.6849 30.8891 23.4549 30.9141 22.2066C30.9858 20.6033 31.0075 20.0949 31.0075 16.0233C31.0041 11.9533 31.0041 11.4366 30.9108 9.8416ZM15.9891 23.6699C11.7325 23.6699 8.28414 20.2216 8.28414 15.9649C8.28414 11.7083 11.7325 8.25993 15.9891 8.25993C18.0326 8.25993 19.9924 9.0717 21.4374 10.5167C22.8824 11.9616 23.6941 13.9214 23.6941 15.9649C23.6941 18.0084 22.8824 19.9682 21.4374 21.4132C19.9924 22.8582 18.0326 23.6699 15.9891 23.6699ZM24.0008 9.7716C23.0058 9.7716 22.2041 8.96826 22.2041 7.97493C22.2041 7.7391 22.2506 7.50557 22.3408 7.28769C22.4311 7.06981 22.5634 6.87184 22.7301 6.70508C22.8969 6.53832 23.0949 6.40604 23.3127 6.3158C23.5306 6.22555 23.7641 6.1791 24 6.1791C24.2358 6.1791 24.4693 6.22555 24.6872 6.3158C24.9051 6.40604 25.1031 6.53832 25.2698 6.70508C25.4366 6.87184 25.5689 7.06981 25.6591 7.28769C25.7494 7.50557 25.7958 7.7391 25.7958 7.97493C25.7958 8.96826 24.9925 9.7716 24.0008 9.7716Z" fill="#661725"/>
</svg>
